HIERARCHY
ROOT Hips
{
 OFFSET 0.000000 0.000000 0.000000
 CHANNELS 6 Xposition Yposition Zposition Yrotation Xrotation Zrotation
 JOINT Chest
 {
  OFFSET 0.000000 9.588913 -0.003946
  CHANNELS 3 Yrotation Xrotation Zrotation
  JOINT Chest2
  {
   OFFSET 0.000000 9.541882 0.008053
   CHANNELS 3 Yrotation Xrotation Zrotation
   JOINT Chest3
   {
    OFFSET 0.000000 9.501360 0.000000
    CHANNELS 3 Yrotation Xrotation Zrotation
    JOINT Chest4
    {
     OFFSET 0.000000 9.491660 0.000000
     CHANNELS 3 Yrotation Xrotation Zrotation
     JOINT Neck
     {
      OFFSET 0.000000 14.331917 0.000000
      CHANNELS 3 Yrotation Xrotation Zrotation
      JOINT Head
      {
       OFFSET 0.000000 8.884799 0.017034
       CHANNELS 3 Yrotation Xrotation Zrotation
       End Site
       {
        OFFSET 0.000000 16.896195 0.008993
       }
      }
     }
     JOINT RightCollar
     {
      OFFSET -2.923010 9.499495 0.000000
      CHANNELS 3 Yrotation Xrotation Zrotation
      JOINT RightShoulder
      {
       OFFSET -13.795216 0.000000 0.000000
       CHANNELS 3 Yrotation Xrotation Zrotation
       JOINT RightElbow
       {
        OFFSET -30.272209 0.000000 0.000000
        CHANNELS 3 Yrotation Xrotation Zrotation
        JOINT RightWrist
        {
         OFFSET -24.478199 0.000000 0.000000
         CHANNELS 3 Yrotation Xrotation Zrotation
         End Site
         {
          OFFSET -18.090752 0.000000 0.000000
         }
        }
       }
      }
     }
     JOINT LeftCollar
     {
      OFFSET 2.923010 9.499495 0.000000
      CHANNELS 3 Yrotation Xrotation Zrotation
      JOINT LeftShoulder
      {
       OFFSET 13.795216 0.000000 0.000000
       CHANNELS 3 Yrotation Xrotation Zrotation
       JOINT LeftElbow
       {
        OFFSET 30.272209 0.000000 0.000000
        CHANNELS 3 Yrotation Xrotation Zrotation
        JOINT LeftWrist
        {
         OFFSET 24.478199 0.000000 0.000000
         CHANNELS 3 Yrotation Xrotation Zrotation
         End Site
         {
          OFFSET 18.090752 0.000000 0.000000
         }
        }
       }
      }
     }
    }
   }
  }
 }
 JOINT RightHip
 {
  OFFSET -7.826875 0.019532 0.001973
  CHANNELS 3 Yrotation Xrotation Zrotation
  JOINT RightKnee
  {
   OFFSET 0.000000 -40.546152 -0.001885
   CHANNELS 3 Yrotation Xrotation Zrotation
   JOINT RightAnkle
   {
    OFFSET 0.000000 -39.417092 -0.003189
    CHANNELS 3 Yrotation Xrotation Zrotation
    JOINT RightToe
    {
     OFFSET 0.000000 -7.579396 17.243563
     CHANNELS 3 Yrotation Xrotation Zrotation
     End Site
     {
      OFFSET 0.000000 -1.500329 6.694466
     }
    }
   }
  }
 }
 JOINT LeftHip
 {
  OFFSET 7.826875 0.019532 0.001973
  CHANNELS 3 Yrotation Xrotation Zrotation
  JOINT LeftKnee
  {
   OFFSET 0.000000 -40.546152 -0.001885
   CHANNELS 3 Yrotation Xrotation Zrotation
   JOINT LeftAnkle
   {
    OFFSET 0.000000 -39.417092 -0.003189
    CHANNELS 3 Yrotation Xrotation Zrotation
    JOINT LeftToe
    {
     OFFSET 0.000000 -7.579396 17.243563
     CHANNELS 3 Yrotation Xrotation Zrotation
     End Site
     {
      OFFSET 0.000000 -1.500329 6.694466
     }
    }
   }
  }
 }
}
MOTION
Frames: 7
Frame Time: 0.008333
0.000000 87.345680 0.000000 0.000000 -5.767889 0.000000 0.000000 11.653876 0.000000 0.000000 -5.885988 0.000000 0.000000 -0.000000 0.000000 0.000000 -0.000000 0.000000 0.000000 12.528808 0.000000 0.000000 0.711711 0.000000 0.000000 -0.000000 0.000000 0.000000 -0.000000 0.000000 2.309063 -0.000000 0.000000 -2.309063 -0.000000 -0.000000 0.000000 -0.000000 0.000000 0.000000 0.000000 0.000000 -2.309063 0.000000 0.000000 2.309063 -0.000000 0.000000 0.000000 8.520374 0.000000 0.000000 1.905768 0.000000 -0.000000 -4.658254 0.000000 0.000000 -0.000000 0.000000 0.000000 8.520374 0.000000 0.000000 1.905768 0.000000 -0.000000 -4.658254 0.000000 0.000000 -0.000000 0.000000
-3.763475 47.316376 -31.705432 20.253690 -26.048892 -1.254686 6.913471 10.666636 3.403135 3.864275 6.131201 1.519217 4.862774 7.646700 1.966632 3.864275 6.131201 1.519217 0.864435 9.081112 -1.090928 1.184110 -16.087825 -1.374243 9.693375 -1.733713 -1.847762 0.732712 -22.155456 77.260900 75.406457 14.803787 4.050594 4.959802 -0.830534 -17.408310 0.447247 -5.828953 -2.544268 6.414094 -25.079315 -77.642432 -69.781296 -6.013896 -36.503632 3.724158 6.103939 9.212311 31.761240 -59.763877 -24.941439 115.277627 68.127462 132.370265 2.853780 -16.356915 -3.119590 -0.193300 0.676167 -0.081921 39.436520 -61.628141 -29.450144 104.351851 59.821253 132.420802 0.832597 -12.980422 -13.436689 -0.076909 -0.452839 0.025914
-3.774759 47.310800 -31.699921 20.260233 -26.044985 -1.263638 6.907485 10.657404 3.407645 3.864102 6.129626 1.521572 4.862586 7.644707 1.969558 3.864102 6.129626 1.521572 0.847737 9.156916 -1.097280 1.166487 -16.007318 -1.375787 9.689069 -1.732940 -1.845011 0.741788 -22.164903 77.256463 75.388521 14.796145 4.051452 4.949692 -0.834290 -17.398690 0.448347 -5.824131 -2.548590 6.424377 -25.088677 -77.669340 -69.762748 -6.002236 -36.490754 3.738424 6.115262 9.194155 31.760721 -59.776616 -24.919971 115.331460 68.145467 132.426676 2.844163 -16.359856 -3.115218 -0.183253 0.672805 -0.080922 39.456826 -61.632818 -29.471044 104.297348 59.816918 132.374421 0.860742 -12.937439 -13.419454 -0.083705 -0.464580 0.001049
-3.785755 47.304589 -31.694119 20.269078 -26.042778 -1.266597 6.899287 10.653139 3.407863 3.862922 6.128417 1.523064 4.861127 7.643186 1.971392 3.862922 6.128417 1.523064 0.834684 9.219336 -1.105464 1.153453 -15.941122 -1.380406 9.684019 -1.733858 -1.844550 0.748012 -22.171384 77.255127 75.379868 14.779361 4.054414 4.938215 -0.833806 -17.382766 0.448791 -5.819344 -2.552680 6.431046 -25.098051 -77.687537 -69.743506 -5.998263 -36.478315 3.742829 6.126907 9.179678 31.772067 -59.784220 -24.912146 115.381390 68.158190 132.481017 2.831111 -16.364718 -3.111640 -0.170785 0.670066 -0.077949 39.480158 -61.631249 -29.500407 104.274904 59.827996 132.357737 0.900179 -12.894104 -13.390153 -0.097971 -0.477449 -0.029858
-3.796644 47.297913 -31.688379 20.274801 -26.041111 -1.266717 6.891867 10.650580 3.406458 3.861745 6.127894 1.524540 4.859674 7.642521 1.973213 3.861745 6.127894 1.524540 0.825941 9.270017 -1.114881 1.145537 -15.887447 -1.387577 9.679242 -1.737233 -1.845678 0.750710 -22.175229 77.258000 75.379715 14.761907 4.060105 4.929021 -0.833327 -17.363184 0.452164 -5.815780 -2.558362 6.429033 -25.103398 -77.696603 -69.728700 -5.997920 -36.464752 3.739098 6.135018 9.170024 31.794933 -59.790246 -24.912638 115.427882 68.169865 132.535568 2.817423 -16.368235 -3.108960 -0.158327 0.667093 -0.073723 39.500730 -61.629158 -29.528538 104.281115 59.851435 132.367995 0.947959 -12.849098 -13.355121 -0.116683 -0.492044 -0.062807
-3.807252 47.291128 -31.682664 20.276753 -26.041846 -1.267514 6.886562 10.649299 3.407036 3.860762 6.128679 1.526459 4.858481 7.643486 1.975608 3.860762 6.128679 1.526459 0.822014 9.310463 -1.124741 1.143062 -15.844668 -1.396541 9.673688 -1.743283 -1.848365 0.754220 -22.176972 77.264757 75.383582 14.749246 4.066675 4.923323 -0.832082 -17.346637 0.458720 -5.814041 -2.564783 6.421781 -25.103867 -77.701861 -69.721290 -5.995882 -36.450109 3.729284 6.136930 9.164799 31.819014 -59.794148 -24.910885 115.471032 68.182863 132.588956 2.806005 -16.370657 -3.106287 -0.149040 0.664599 -0.069867 39.510975 -61.628700 -29.546729 104.309909 59.882265 132.400861 0.997713 -12.801150 -13.320030 -0.135332 -0.509699 -0.093822
-3.816746 47.284336 -31.677461 20.281946 -26.044463 -1.269719 6.879783 10.649588 3.408572 3.859333 6.130988 1.528525 4.856741 7.646357 1.978197 3.859333 6.130988 1.528525 0.823109 9.341408 -1.133663 1.145899 -15.811980 -1.405851 9.669193 -1.752125 -1.852784 0.758350 -22.177895 77.272780 75.387677 14.740838 4.071376 4.920419 -0.825683 -17.338441 0.466194 -5.815368 -2.570306 6.412981 -25.102846 -77.706655 -69.720074 -5.992612 -36.435823 3.720637 6.135908 9.160180 31.836088 -59.794105 -24.910264 115.503096 68.192928 132.631962 2.799830 -16.373517 -3.105649 -0.144414 0.663729 -0.067123 39.514505 -61.628675 -29.564887 104.352366 59.917587 132.448307 1.046006 -12.748016 -13.283102 -0.152759 -0.530853 -0.122389
